HIERARCHY
ROOT Hips
{
	OFFSET -0.001795 -0.223333 0.028219
	CHANNELS 6 Xposition Yposition Zposition Zrotation Yrotation Xrotation 
	JOINT LeftUpLeg
	{
		OFFSET 0.069520 -0.091406 -0.006815
		CHANNELS 3 Zrotation Yrotation Xrotation
		JOINT LeftLeg
		{
			OFFSET 0.034277 -0.375199 -0.004496
			CHANNELS 3 Zrotation Yrotation Xrotation
			JOINT LeftFoot
			{
				OFFSET -0.013596 -0.397961 -0.043693
				CHANNELS 3 Zrotation Yrotation Xrotation
				JOINT LeftToe
				{
					OFFSET 0.026358 -0.055791 0.119288
					CHANNELS 3 Zrotation Yrotation Xrotation
					End Site
					{
						OFFSET 0.000000 0.000000 0.000000
					}
				}
			}
		}
	}
	JOINT RightUpLeg
	{
		OFFSET -0.067670 -0.090522 -0.004320
		CHANNELS 3 Zrotation Yrotation Xrotation
		JOINT RightLeg
		{
			OFFSET -0.038290 -0.382569 -0.008850
			CHANNELS 3 Zrotation Yrotation Xrotation
			JOINT RightFoot
			{
				OFFSET 0.015774 -0.398415 -0.042312
				CHANNELS 3 Zrotation Yrotation Xrotation
				JOINT RightToe
				{
					OFFSET -0.025372 -0.048144 0.123348
					CHANNELS 3 Zrotation Yrotation Xrotation
					End Site
					{
						OFFSET 0.000000 0.000000 0.000000
					}
				}
			}
		}
	}
	JOINT Spine
	{
		OFFSET -0.002533 0.108963 -0.026696
		CHANNELS 3 Zrotation Yrotation Xrotation
		JOINT Spine1
		{
			OFFSET 0.005487 0.135180 0.001092
			CHANNELS 3 Zrotation Yrotation Xrotation
			JOINT Spine2
			{
				OFFSET 0.001457 0.052922 0.025425
				CHANNELS 3 Zrotation Yrotation Xrotation
				JOINT Neck
				{
					OFFSET -0.002778 0.213870 -0.042857
					CHANNELS 3 Zrotation Yrotation Xrotation
					JOINT Head
					{
						OFFSET 0.005152 0.064970 0.051349
						CHANNELS 3 Zrotation Yrotation Xrotation
						End Site
						{
							OFFSET 0.000000 0.000000 0.000000
						}
					}
				}
				JOINT LeftShoulder
				{
					OFFSET 0.078845 0.121749 -0.034090
					CHANNELS 3 Zrotation Yrotation Xrotation
					JOINT LeftArm
					{
						OFFSET 0.090977 0.030469 -0.008868
						CHANNELS 3 Zrotation Yrotation Xrotation
						JOINT LeftForeArm
						{
							OFFSET 0.259612 -0.012772 -0.027456
							CHANNELS 3 Zrotation Yrotation Xrotation
							JOINT LeftHand
							{
								OFFSET 0.249234 0.008986 -0.001171
								CHANNELS 3 Zrotation Yrotation Xrotation
								End Site
								{
									OFFSET 0.000000 0.000000 0.000000
								}
							}
						}
					}
				}
				JOINT RightShoulder
				{
					OFFSET -0.081759 0.118833 -0.038615
					CHANNELS 3 Zrotation Yrotation Xrotation
					JOINT RightArm
					{
						OFFSET -0.096012 0.032551 -0.009143
						CHANNELS 3 Zrotation Yrotation Xrotation
						JOINT RightForeArm
						{
							OFFSET -0.253742 -0.013329 -0.021401
							CHANNELS 3 Zrotation Yrotation Xrotation
							JOINT RightHand
							{
								OFFSET -0.255298 0.007772 -0.005559
								CHANNELS 3 Zrotation Yrotation Xrotation
								End Site
								{
									OFFSET 0.000000 0.000000 0.000000
								}
							}
						}
					}
				}
			}
		}
	}
}
MOTION
Frames: 15
Frame Time: 0.050000
0.000000 0.944015 0.000000 -1.331093 3.070995 6.096652 4.463399 -0.264345 -2.310702 2.145625 0.092134 -5.999813 -1.934716 0.563074 9.075958 0.000000 0.000000 0.000000 -3.694153 0.482555 -5.330843 -3.043328 0.182383 -2.251729 -1.426800 -7.790063 14.307823 0.000000 0.000000 0.000000 1.375451 0.160866 -3.992437 0.779769 -0.301802 -1.556267 -0.643823 -0.138622 -0.939823 -0.792707 0.876109 -3.324302 0.000000 0.000000 0.000000 -18.344553 2.361308 -3.540229 -54.086790 -5.426588 -3.413045 -12.220250 -17.101008 2.357536 0.000000 0.000000 0.000000 15.717814 -2.582013 -2.572768 58.173170 4.650167 -2.777595 8.165532 17.114165 1.630079 0.000000 0.000000 0.000000 
0.000299 0.943003 0.000425 -1.544643 1.772935 6.568948 3.670290 -0.220628 -1.814439 3.727900 0.092269 -7.295486 -1.307198 1.588226 9.217995 0.000000 0.000000 0.000000 -3.970723 0.519066 -5.737644 -2.366055 0.079319 -2.862303 -0.816469 -6.836641 14.125393 0.000000 0.000000 0.000000 2.057502 0.188889 -4.393123 -0.408605 0.238904 -1.768500 0.275177 0.107128 -1.188288 -2.230419 1.917605 -3.527791 0.000000 0.000000 0.000000 -19.182601 3.708844 -4.227552 -53.715823 -5.203364 -3.473785 -13.930044 -17.587639 2.709567 0.000000 0.000000 0.000000 14.719017 -3.115931 -2.855812 59.269027 3.883356 -3.174676 8.646192 18.062615 1.775067 0.000000 0.000000 0.000000 
0.000481 0.943011 0.000443 -1.233260 2.467055 6.575957 3.399703 -0.221065 -1.837839 3.694231 0.108089 -7.498293 -1.695491 1.038286 9.346760 0.000000 0.000000 0.000000 -4.341013 0.512705 -5.839968 -2.245355 0.099131 -2.415663 -1.200910 -7.399579 14.011454 0.000000 0.000000 0.000000 1.659082 0.160281 -3.962885 -0.036179 0.132867 -3.515191 -0.386089 -0.535242 -0.442047 -2.868456 2.401721 -3.745301 0.000000 0.000000 0.000000 -18.707456 3.255712 -3.877811 -54.200240 -5.158807 -3.604403 -13.585061 -17.602991 2.667729 0.000000 0.000000 0.000000 16.160590 -2.644554 -2.795742 57.939779 3.443926 -3.406258 8.030567 18.518863 1.743988 0.000000 0.000000 0.000000 
0.000572 0.942871 0.000400 -1.505516 2.206649 6.724019 3.232794 -0.229621 -2.021905 4.476844 0.069517 -7.383378 -1.502016 1.300694 9.228480 0.000000 0.000000 0.000000 -4.358571 0.559581 -6.541107 -1.731108 0.100053 -1.575958 -1.119791 -7.247587 13.835848 0.000000 0.000000 0.000000 1.907694 0.155801 -3.860863 -0.964867 0.522698 -3.142412 0.765000 -1.358528 -1.628935 -4.112141 3.240386 -2.945732 0.000000 0.000000 0.000000 -18.258920 4.262919 -4.082955 -55.421651 -5.639004 -3.379892 -13.160001 -17.595512 2.636803 0.000000 0.000000 0.000000 15.028425 -2.714058 -2.954447 58.093876 3.199134 -3.416412 9.079036 18.734366 1.861382 0.000000 0.000000 0.000000 
0.000526 0.943192 0.000271 -1.360067 2.755002 6.583407 3.085169 -0.220071 -1.886795 4.547037 0.080027 -7.555718 -1.825320 0.868482 9.398905 0.000000 0.000000 0.000000 -4.565472 0.535541 -6.341651 -1.558925 0.091429 -1.471056 -1.371400 -7.642781 13.911705 0.000000 0.000000 0.000000 1.753592 0.140327 -3.603549 -0.686748 0.409142 -3.240959 0.407215 -1.699248 -1.611785 -4.507223 3.540963 -3.633244 0.000000 0.000000 0.000000 -18.053146 3.894689 -3.868808 -55.605204 -6.114064 -3.173480 -13.532767 -17.382280 2.659712 0.000000 0.000000 0.000000 15.414329 -2.947794 -3.115996 57.773226 3.395885 -3.300530 9.293136 18.841164 1.905651 0.000000 0.000000 0.000000 
0.000524 0.943630 0.000187 -1.375815 2.656868 6.731290 2.998871 -0.222175 -1.936925 4.712342 0.086596 -7.734671 -1.822140 0.959267 9.622340 0.000000 0.000000 0.000000 -4.623390 0.550476 -6.581863 -1.439478 0.084357 -1.381916 -1.312018 -7.578346 14.041686 0.000000 0.000000 0.000000 1.627995 0.142523 -3.649038 -0.747446 0.439547 -3.437652 0.719308 -1.927800 -1.622791 -4.776713 3.728602 -3.440454 0.000000 0.000000 0.000000 -18.236652 4.284450 -4.024714 -55.938850 -6.279871 -3.117588 -13.052852 -17.422569 2.604665 0.000000 0.000000 0.000000 15.178766 -2.807724 -3.077855 57.883899 3.431516 -3.294301 9.212264 18.813984 1.878656 0.000000 0.000000 0.000000 
0.000483 0.943925 0.000170 -1.333388 2.869189 6.626794 2.839444 -0.211370 -1.812512 4.948821 0.085200 -7.829255 -1.960694 0.797216 9.745585 0.000000 0.000000 0.000000 -4.564653 0.541649 -6.465552 -1.586085 0.102949 -1.311310 -1.402013 -7.727922 14.113687 0.000000 0.000000 0.000000 1.459347 0.130480 -3.419759 -0.616013 0.384659 -3.423517 0.665606 -2.250488 -1.696992 -4.643990 3.630175 -3.642540 0.000000 0.000000 0.000000 -18.366819 4.407054 -4.067554 -55.735474 -6.002363 -3.233612 -13.608541 -17.492289 2.708174 0.000000 0.000000 0.000000 15.482453 -2.745052 -3.131448 57.548411 3.217141 -3.366745 9.463415 18.821289 1.907044 0.000000 0.000000 0.000000 
0.000504 0.944230 0.000186 -1.390844 2.951941 6.607549 2.698401 -0.208544 -1.808525 5.321994 0.072173 -7.832331 -2.012725 0.755142 9.830773 0.000000 0.000000 0.000000 -4.432900 0.542289 -6.438129 -1.694406 0.114195 -1.302326 -1.421497 -7.776856 14.226952 0.000000 0.000000 0.000000 1.395518 0.129181 -3.395148 -0.578030 0.364877 -3.283168 0.620008 -2.187728 -1.951087 -4.456599 3.489461 -3.462007 0.000000 0.000000 0.000000 -18.436298 4.335633 -4.072403 -55.465716 -5.837899 -3.268288 -13.677225 -17.581071 2.726353 0.000000 0.000000 0.000000 15.932859 -2.832394 -3.226349 57.550977 3.113341 -3.387105 9.116447 18.458478 1.818305 0.000000 0.000000 0.000000 
0.000500 0.944429 0.000182 -1.410722 3.199658 6.460024 2.730202 -0.205229 -1.747783 5.343228 0.065024 -7.743103 -2.135302 0.568614 9.823509 0.000000 0.000000 0.000000 -4.313628 0.532110 -6.280824 -1.824965 0.132686 -1.214176 -1.527442 -7.944461 14.282098 0.000000 0.000000 0.000000 1.290731 0.123836 -3.285260 -0.522810 0.339766 -3.170704 0.675298 -2.270429 -2.178969 -4.264730 3.344543 -3.219062 0.000000 0.000000 0.000000 -18.209015 4.229034 -3.994918 -55.515435 -5.535031 -3.390794 -13.702921 -17.635042 2.735505 0.000000 0.000000 0.000000 16.280502 -2.889862 -3.306297 57.248074 2.836194 -3.475685 9.035540 18.019339 1.758017 0.000000 0.000000 0.000000 
0.000491 0.944628 0.000141 -1.434904 3.193377 6.289881 2.712413 -0.190330 -1.542809 5.418228 0.064808 -7.782045 -2.150861 0.563329 9.871818 0.000000 0.000000 0.000000 -4.281244 0.513721 -5.993023 -1.827997 0.122341 -1.408345 -1.492269 -7.901513 14.367768 0.000000 0.000000 0.000000 1.254044 0.118163 -3.151474 -0.582139 0.361305 -3.018128 0.777923 -2.158098 -2.387433 -4.084208 3.211595 -3.256388 0.000000 0.000000 0.000000 -18.298344 4.273391 -4.052854 -55.334550 -5.384246 -3.430295 -13.773921 -17.447172 2.711313 0.000000 0.000000 0.000000 16.725853 -2.766668 -3.301248 56.854108 2.810533 -3.437076 8.723749 17.481456 1.658755 0.000000 0.000000 0.000000 
0.000474 0.944688 0.000107 -1.500303 3.115297 6.200215 2.818123 -0.186474 -1.463053 5.346727 0.062915 -7.731017 -2.107426 0.618196 9.845940 0.000000 0.000000 0.000000 -4.153901 0.503884 -5.790977 -1.932569 0.119440 -1.634235 -1.429509 -7.815335 14.433608 0.000000 0.000000 0.000000 1.276010 0.122941 -3.237049 -0.640166 0.377933 -2.735134 0.831740 -2.027885 -2.565032 -3.943098 3.104201 -3.100638 0.000000 0.000000 0.000000 -18.370469 4.164056 -4.025917 -55.188473 -5.209037 -3.484771 -13.304401 -17.435980 2.633697 0.000000 0.000000 0.000000 16.958874 -2.578806 -3.231392 56.794473 2.929252 -3.358308 8.459213 16.948811 1.568931 0.000000 0.000000 0.000000 
0.000449 0.944491 0.000212 -1.591785 3.129323 6.066259 3.001630 -0.179618 -1.302749 5.206719 0.069524 -7.752013 -2.093025 0.598011 9.740044 0.000000 0.000000 0.000000 -4.015138 0.494558 -5.617316 -1.992360 0.122857 -1.675824 -1.431497 -7.807243 14.387496 0.000000 0.000000 0.000000 1.178785 0.125377 -3.273873 -0.447914 0.279431 -2.291354 0.923404 -1.913553 -3.192830 -3.567579 2.810202 -2.601403 0.000000 0.000000 0.000000 -18.448838 4.128443 -4.054332 -55.023191 -4.935942 -3.538856 -13.028124 -17.168603 2.541481 0.000000 0.000000 0.000000 17.161148 -2.566433 -3.252789 56.402049 3.037653 -3.217595 8.494496 16.493307 1.523893 0.000000 0.000000 0.000000 
0.000432 0.944444 0.000362 -1.760819 3.105520 5.936568 3.046909 -0.164903 -1.065254 5.457612 0.072009 -7.907592 -2.073413 0.624359 9.726113 0.000000 0.000000 0.000000 -3.812847 0.483624 -5.400701 -2.017459 0.116810 -1.822398 -1.394342 -7.753543 14.427107 0.000000 0.000000 0.000000 1.157119 0.131967 -3.397977 -0.377055 0.234668 -1.888789 1.151328 -1.901268 -3.723015 -3.450446 2.703607 -2.120378 0.000000 0.000000 0.000000 -18.674355 4.184047 -4.115553 -54.614767 -4.824916 -3.514596 -12.952832 -16.718210 2.459521 0.000000 0.000000 0.000000 17.178854 -2.546463 -3.274785 56.138477 3.179664 -3.080587 8.493700 16.339642 1.501738 0.000000 0.000000 0.000000 
0.000428 0.944280 0.000417 -1.951484 3.099968 5.756253 3.166327 -0.156903 -0.906724 5.622041 0.060536 -7.842007 -2.030878 0.636514 9.583561 0.000000 0.000000 0.000000 -3.588238 0.474147 -5.220680 -2.039592 0.119698 -1.810250 -1.378260 -7.720138 14.400183 0.000000 0.000000 0.000000 1.147752 0.133224 -3.407505 -0.230379 0.152678 -1.425452 1.360452 -1.875032 -4.411670 -3.049376 2.381899 -1.540165 0.000000 0.000000 0.000000 -18.897035 4.092101 -4.109100 -54.087420 -4.417165 -3.599309 -12.792611 -16.644144 2.421128 0.000000 0.000000 0.000000 17.264137 -2.353092 -3.217549 55.661640 3.106292 -3.013821 8.495016 16.772039 1.540154 0.000000 0.000000 0.000000 
0.000483 0.944096 0.000323 -2.091494 3.046122 5.803478 3.179176 -0.165289 -1.037061 5.863391 0.040214 -7.701869 -1.958510 0.704339 9.463105 0.000000 0.000000 0.000000 -3.550625 0.486090 -5.373823 -1.849178 0.109379 -1.674614 -1.358320 -7.682240 14.356586 0.000000 0.000000 0.000000 1.093160 0.142939 -3.614225 -0.086705 0.085383 -1.379555 1.462642 -1.818366 -4.702853 -2.936410 2.291613 -1.450553 0.000000 0.000000 0.000000 -18.855724 4.178730 -4.155263 -53.799082 -3.981066 -3.744632 -12.998414 -16.571058 2.437611 0.000000 0.000000 0.000000 17.298863 -2.382476 -3.246160 55.231741 3.237064 -2.895428 8.664457 17.095553 1.593186 0.000000 0.000000 0.000000 
